<svg id="svg" version="1.1" xmlns="http://www.w3.org/2000/svg" xmlns:xlink="http://www.w3.org/1999/xlink"
    viewBox="5.08 168.11 389.16 62.2">
    <g id="svgg">
        <path id="path0"
            d="M265.982 168.319 C 258.880 170.632,260.805 180.468,268.359 180.468 C 276.998 180.468,277.633 168.799,269.030 168.145 C 267.909 168.060,266.538 168.138,265.982 168.319 M207.813 175.391 L 207.813 180.469 216.602 180.469 L 225.391 180.469 225.391 205.078 L 225.391 229.688 231.641 229.688 L 237.891 229.688 237.891 205.078 L 237.891 180.469 246.875 180.469 L 255.859 180.469 255.859 175.391 L 255.859 170.313 231.836 170.313 L 207.813 170.313 207.813 175.391 M301.758 185.470 C 299.809 186.147,296.386 188.273,295.851 189.139 C 295.475 189.748,294.985 188.488,294.949 186.816 L 294.922 185.547 289.258 185.547 L 283.594 185.547 283.594 207.617 L 283.594 229.688 289.648 229.688 L 295.703 229.688 295.703 214.025 C 295.703 198.971,295.734 198.320,296.487 197.262 C 298.239 194.802,303.122 193.752,306.143 195.185 C 308.891 196.489,308.966 196.998,308.976 214.355 L 308.984 229.688 315.039 229.688 L 321.094 229.688 321.094 214.316 L 321.094 198.945 322.226 197.383 C 324.958 193.611,331.830 193.541,333.691 197.266 C 334.307 198.498,334.374 200.160,334.374 214.160 L 334.375 229.688 340.430 229.688 L 346.484 229.688 346.484 213.496 C 346.484 193.678,346.038 191.081,342.037 187.657 C 336.680 183.072,325.709 183.872,320.792 189.207 L 319.218 190.914 318.698 189.941 C 316.324 185.507,307.987 183.306,301.758 185.470 M367.489 185.682 C 350.486 191.476,348.766 220.020,364.948 227.841 C 373.618 232.032,384.998 230.593,391.113 224.532 C 393.444 222.222,393.489 222.500,390.180 218.769 C 386.972 215.153,387.214 215.257,385.718 216.833 C 380.437 222.395,370.310 221.204,367.234 214.661 C 365.543 211.063,364.502 211.328,380.320 211.328 L 394.235 211.328 393.962 206.348 C 393.424 196.502,391.145 191.285,385.800 187.669 C 381.327 184.643,373.143 183.754,367.489 185.682 M262.500 207.617 L 262.500 229.688 268.555 229.688 L 274.609 229.688 274.609 207.617 L 274.609 185.547 268.555 185.547 L 262.500 185.547 262.500 207.617 M377.863 195.064 C 380.228 196.052,382.023 199.062,382.029 202.051 L 382.031 203.125 374.219 203.125 C 365.399 203.125,365.894 203.352,367.187 199.897 C 368.890 195.343,373.518 193.249,377.863 195.064 "
            stroke="none" fill="#2494f4" fill-rule="evenodd"></path>
        <path id="path1"
            d="M5.078 199.990 L 5.078 229.688 11.324 229.688 L 17.571 229.688 17.672 210.740 L 17.773 191.793 29.297 210.731 L 40.820 229.669 46.973 229.678 L 53.125 229.688 53.125 200.000 L 53.125 170.313 46.879 170.313 L 40.633 170.313 40.531 189.069 L 40.430 207.826 29.055 189.167 L 17.681 170.508 11.379 170.400 L 5.078 170.293 5.078 199.990 M74.520 185.682 C 57.517 191.476,55.797 220.020,71.979 227.841 C 80.650 232.032,92.029 230.593,98.145 224.532 C 100.475 222.222,100.520 222.500,97.211 218.769 C 94.004 215.153,94.245 215.257,92.749 216.833 C 87.468 222.395,77.341 221.204,74.266 214.661 C 72.574 211.063,71.533 211.328,87.352 211.328 L 101.266 211.328 100.994 206.348 C 100.455 196.502,98.176 191.285,92.832 187.669 C 88.358 184.643,80.175 183.754,74.520 185.682 M178.223 185.369 C 171.277 187.240,167.391 191.857,167.389 198.242 C 167.388 205.392,171.392 208.972,182.501 211.754 C 190.702 213.808,193.087 215.932,190.915 219.247 C 188.055 223.611,177.344 221.169,177.344 216.153 L 177.344 215.234 171.484 215.234 C 164.910 215.234,165.300 214.995,166.206 218.472 C 170.604 235.357,203.477 233.698,203.284 216.602 C 203.202 209.296,199.405 205.950,187.931 203.074 C 184.615 202.243,181.849 201.563,181.785 201.563 C 179.553 201.563,178.182 196.989,179.868 195.170 C 183.285 191.483,191.008 193.544,191.014 198.145 L 191.016 199.219 197.125 199.219 L 203.234 199.219 203.024 196.903 C 202.214 187.976,189.867 182.234,178.223 185.369 M104.501 187.588 C 104.790 188.721,107.242 198.350,109.951 208.984 C 112.660 219.619,114.968 228.628,115.081 229.004 C 115.263 229.609,115.864 229.688,120.281 229.688 L 125.276 229.688 129.312 216.218 C 131.531 208.810,133.384 202.789,133.428 202.839 C 133.472 202.889,135.312 208.950,137.516 216.309 L 141.525 229.688 146.517 229.688 C 151.045 229.688,151.531 229.620,151.741 228.960 C 151.868 228.559,154.343 218.935,157.242 207.573 C 160.141 196.211,162.609 186.606,162.728 186.230 C 162.926 185.600,162.486 185.547,157.084 185.547 C 151.842 185.547,151.203 185.619,151.019 186.230 C 150.905 186.606,149.657 192.530,148.245 199.394 C 146.833 206.259,145.629 211.923,145.569 211.983 C 145.510 212.042,144.019 207.041,142.257 200.870 C 140.495 194.698,138.778 188.726,138.442 187.598 L 137.832 185.547 133.387 185.547 L 128.943 185.547 128.539 187.012 C 125.662 197.431,121.269 212.050,121.135 211.649 C 121.040 211.365,119.795 205.420,118.368 198.438 L 115.773 185.742 109.874 185.635 L 103.975 185.527 104.501 187.588 M84.894 195.064 C 87.259 196.052,89.054 199.062,89.060 202.051 L 89.063 203.125 81.250 203.125 C 72.430 203.125,72.925 203.352,74.218 199.897 C 75.922 195.343,80.549 193.249,84.894 195.064 "
            stroke="none" fill="#040404" fill-rule="evenodd"></path>
        <path id="path2" d="" stroke="none" fill="#1498bc" fill-rule="evenodd"></path>
        <path id="path3" d="" stroke="none" fill="#145040" fill-rule="evenodd"></path>
        <path id="path4" d="" stroke="none" fill="#140444" fill-rule="evenodd"></path>
    </g>
</svg>