<svg xmlns="http://www.w3.org/2000/svg" width="400" height="400">
    <g fill-rule="evenodd">
        <path
            d="M215.234 130.859v14.844h53.602l-.291 73.633-.292 73.633h36.696l.26-51.27c.143-28.198.259-61.329.26-73.623v-22.354l26.953.25 26.953.25v-30.206H215.234v14.843"
            fill="#2494f4" />
        <path
            d="M51.172 204.488v88.481h36.716l.099-57.62.099-57.62 34.993 57.522 34.992 57.522 18.426.102 18.425.101v-176.96h-36.328l-.057 2.636c-.032 1.451-.163 27.382-.293 57.627l-.236 54.989-34.984-57.528-34.984-57.529-18.434-.102-18.434-.101v88.48"
            fill="#040404" />
    </g>
</svg>